<?xml version="1.0" encoding="utf-8"?>
<!DOCTYPE svg PUBLIC "-//W3C//DTD SVG 1.1//EN" "http://www.w3.org/Graphics/SVG/1.1/DTD/svg11.dtd">
<svg xmlns="http://www.w3.org/2000/svg" xml:space="preserve" viewBox="0 0 2408 2158.7">
  <style>
    .st0{display:none}.st2{display:inline}.st9{stroke:#000;stroke-width:3;stroke-miterlimit:10}.st10{fill:#fff}
  </style>
  <g id="Light_Bulb">
    <path d="M1532.6 1474.3c-2.1-64 11-127.4 29.2-188.5 18.8-62.9 43.4-123.9 69.2-184.2 25.5-59.6 49.3-120.3 78.6-178.1 15.9-31.4 33.7-61.7 47.5-94.1 13.8-32.4 24.8-65.8 32.5-100.2 26.6-118.8 15.4-244.1-32.1-356.1-41.9-98.9-111.6-184.7-198.8-247.2-88.3-63.3-194.2-100.5-302.7-107.1-110.4-6.8-221 15-318.9 67.1-94.5 50.2-174.5 127-229 219-57.3 96.8-85.3 209.9-80.2 322.3 3.2 70.5 19.3 139.7 47.1 204.5 14.3 33.3 32.8 64.4 49 96.7 15.4 30.9 28.8 62.5 42.2 94.3 49.8 117.5 105.9 235.2 126.4 362.3 4.8 29.5 7 59.4 6 89.3-.6 19.3 29.4 19.3 30 0 2.1-63.7-10.3-127.4-27.9-188.4-18.3-63.1-42.7-124.3-68.4-184.8-11.6-27.5-23.6-54.9-35.4-82.4-13-30.4-25.3-60.9-39.7-90.7-15.6-32.4-34.2-63.3-49.3-95.9-14-30.2-25.1-61.7-33.4-93.9-29.4-114.6-20.9-237 23.6-346.5 38.2-94.2 104.2-178 186.4-237.7 84.8-61.6 186.1-98.9 290.7-105.3 106.6-6.5 212.9 13.9 307.1 64.8 90.4 48.8 166.3 122.4 217.8 211.4 55.1 95.2 79.9 205.4 72.4 315.1-4.6 67-21.7 133.6-50.3 194.4-15.3 32.6-33.9 63.6-49.5 96.1-14.2 29.6-26.4 60-39.3 90.1-50 117-105.5 235.2-124.7 362-4.6 30.3-7.2 60.9-6.1 91.6.7 19.3 30.7 19.4 30 .1z"/>
    <path d="M1709.5 431.3c-26.5-79.6-72.2-152.3-132.7-210.5-58.6-56.2-130.3-98.3-208-121.9-49.5-15-101.4-22.2-153.1-21.8-7.8.1-15.4 6.9-15 15 .4 8.1 6.6 15.1 15 15 44.6-.3 86.7 4.8 129.7 16.3 20.6 5.5 40.8 12.4 60.6 20.5 1 .4 1.9.8 2.9 1.2-1.8-.8.6.2.8.3 2.4 1 4.8 2.1 7.2 3.2 4.3 1.9 8.6 3.9 12.8 6 8.5 4.1 16.8 8.4 25.1 13 64.7 35.9 121.5 87.1 163.2 147 26.9 38.6 48 80.4 62.7 124.6 2.6 7.7 10.3 12.7 18.5 10.5 7.3-2 12.9-10.7 10.3-18.4zm-2 327.4c19-55.6 28.2-114.4 27.6-173.2-.1-7.8-6.8-15.4-15-15-8.1.4-15.1 6.6-15 15 .6 56.7-8.1 111.3-26.6 165.2-2.5 7.4 2.9 16.7 10.5 18.5 8.4 1.8 15.8-2.6 18.5-10.5zm-224.9 598c2.3-33.8 10-67.8 20.5-101.2 11-35 24.9-68.6 40.5-101.7 9.1-19.5 18.8-38.7 28.8-57.7 3.8-7.2 1.8-16.3-5.4-20.5-6.8-3.9-16.8-1.8-20.5 5.4-35.4 67.8-68.6 138.7-84.9 213.8-4.4 20.4-7.5 41.2-8.9 62-.5 7.8 7.3 15.3 15 15 8.4-.4 14.3-6.6 14.9-15.1zm-45.1 279.8h-195.1c-7.8 0-15.4 6.9-15 15 .4 8.1 6.6 15 15 15h195.1c7.8 0 15.4-6.9 15-15-.3-8.1-6.6-15-15-15zm66.5 177.2h-164.1c-7.8 0-15.4 6.9-15 15 .4 8.1 6.6 15 15 15H1504c7.8 0 15.4-6.9 15-15-.3-8.1-6.6-15-15-15z"/>
    <path d="M1020.2 1636.5c-30.9 0-61.9.2-92.8 0-2.4 0-4.7-.1-7.1-.3-.7-.1-6-.8-2.9-.3-2.2-.4-4.5-.8-6.7-1.3-3.5-.8-6.9-1.9-10.3-3.1-.8-.3-1.7-.6-2.5-1 2.6 1 .4.2-.1-.1-2-1-4-1.9-5.9-3-12.1-6.7-21.4-15.8-28.1-27.1-.9-1.5-1.7-3.1-2.6-4.6l-1.2-2.4c0 .1-1.7-3.9-.9-1.8.7 1.7-.3-.9-.5-1.3-.3-.8-.6-1.7-.9-2.5-.7-1.9-1.3-3.8-1.8-5.8s-1-3.9-1.4-5.9c-.2-.9-.3-1.8-.5-2.7-.4-2.4.2 2.3 0-.1-.4-3.5-.6-6.9-.6-10.4 0-2.1.1-4.2.2-6.3.1-.9.1-1.8.2-2.8 0-.4.5-3.3.2-1.4s.2-1 .3-1.4c.2-.9.3-1.8.5-2.7.5-2.2 1-4.4 1.7-6.5.5-1.7 1.1-3.4 1.7-5.1.3-.8.6-1.7.9-2.5.8-2.2-.9 2 0-.1 1.7-3.6 3.5-7.1 5.6-10.5.9-1.5 1.9-2.9 2.9-4.4.2-.3 1.9-2.6.8-1.1-1.3 1.7 1.3-1.6 1.3-1.6 2.4-2.8 4.9-5.5 7.7-8.1 1.4-1.3 2.9-2.6 4.4-3.9.4-.4 2.3-1.7.1-.1l2.1-1.5c3.1-2.1 6.3-4.1 9.6-5.8 1.8-.9 3.5-1.8 5.4-2.6-2.8 1.3 1.9-.7 2.6-.9 3.8-1.3 7.7-2.4 11.7-3.2.9-.2 5.8-1 2.8-.6 1.8-.2 3.7-.4 5.5-.5 1.9-.1 3.8-.2 5.7-.2h578.1c1.9 0 3.7.1 5.6.3.9.1 1.8.2 2.8.3 4.4.4-2.9-.6 1.4.2 3.6.7 7.1 1.4 10.5 2.5 1.7.5 3.4 1.1 5.1 1.7.8.3 1.7.6 2.5 1-2.9-1.2.7.3 1.3.6 3.2 1.5 6.3 3.2 9.2 5.1 1.7 1.1 3.3 2.2 4.9 3.3 1.9 1.3-1.7-1.4.1 0 .8.7 1.7 1.4 2.5 2.1 2.6 2.3 5.1 4.7 7.5 7.3 1.3 1.4 2.6 2.9 3.8 4.5 1.4 1.8-1.3-1.8 0 .1.6.9 1.3 1.8 1.9 2.7 2.1 3.1 4 6.3 5.7 9.6l1.2 2.4c.2.4 1.3 2.9.6 1.2-.7-1.7.3.9.5 1.3.4 1 .8 2.1 1.1 3.1 1.2 3.6 2.2 7.3 2.9 11.1.2.9.3 1.8.5 2.7.4 2.4-.2-2.3 0 .1.3 2.3.4 4.6.5 6.9.1 3.3.1 6.5-.2 9.8-.1.7-.9 6.7-.3 3.5-.3 2-.7 4-1.2 6-.8 3.5-1.8 6.9-3 10.3-.4 1-.8 2.1-1.2 3.1.2-.6 1.2-2.5-.1.1-.9 1.8-1.7 3.6-2.7 5.3-1.8 3.3-3.9 6.4-5.9 9.5-.3.4-1.7 2.3 0 .1-.5.7-1.1 1.4-1.7 2-1.3 1.5-2.6 3-3.9 4.4-2.6 2.7-5.3 5.1-8.2 7.5-.4.4-2.3 1.7-.1.1l-2.1 1.5c-1.8 1.3-3.6 2.4-5.5 3.6-3 1.8-6.2 3.4-9.4 4.8 2.8-1.2-1.9.7-2.6.9-1.7.6-3.4 1.1-5.1 1.6-3.5 1-7 1.7-10.6 2.3 3.2-.5-2.8.3-3.5.3-2.1.1-4.2.2-6.3.2-7.8.1-15.4 6.9-15 15 .4 8.1 6.6 15.1 15 15 35.6-.3 68.8-18.6 87.9-48.7 19-30 20.3-68.1 5.4-100-14.9-31.8-46.3-53.1-80.8-57.6-7-.9-13.9-.9-20.9-.9H928.7c-22.1 0-44.1 6.3-62 19.5-28 20.6-45.1 54-43.1 89.1 1.9 35 21.4 67.5 51.9 85 15.4 8.8 33.1 13.5 50.8 13.7 5.1.1 10.2 0 15.2 0h78.5c7.8 0 15.4-6.9 15-15-.2-7.7-6.4-14.6-14.8-14.6z"/>
    <path d="M1504 1666.5c2.3 0 4.7.1 7 .3.9.1 1.8.2 2.8.3 4.4.4-1.8-.3.8.1 4.4.8 8.8 1.8 13.1 3.2 1.9.6 3.8 1.3 5.6 2.1-2.6-1-.4-.2.1.1 1.2.6 2.4 1.1 3.6 1.7 3.7 1.9 7.2 4.2 10.7 6.5.6.4 2.9 2.2.6.4.7.5 1.4 1.1 2 1.7 1.7 1.4 3.3 2.9 4.9 4.4 1.4 1.4 2.8 2.8 4.1 4.2.7.8 1.4 1.6 2.1 2.5.4.5 2.7 3.6.9 1.1 2.3 3.2 4.5 6.5 6.4 9.9 1 1.7 1.8 3.5 2.7 5.3.3.7 1.4 3.4.3.7.5 1.2 1 2.5 1.4 3.7 1.3 3.8 2.4 7.7 3.2 11.7.2 1.1.4 2.2.6 3.4.5 2.6-.3-3.6.1.8.2 2.3.4 4.6.5 6.9.1 3.7 0 7.5-.3 11.2 0-.1-.6 4.3-.2 2.1.4-2.2-.4 2.2-.4 2.1-.4 2.2-.9 4.4-1.5 6.6-.6 2.2-1.2 4.3-2 6.4-.3.8-.6 1.7-.9 2.5-1.4 4 .8-1.6-.3.7-1.8 4-3.9 7.9-6.3 11.6-1.1 1.7-2.2 3.3-3.4 4.9 1.7-2.4-1.6 1.9-2.2 2.6-2.9 3.3-6 6.3-9.3 9.2-.8.7-1.7 1.4-2.5 2.1 2.5-2-.9.6-1.2.8-1.8 1.3-3.6 2.4-5.5 3.6-2.3 1.3-4.6 2.6-7 3.7-.8.4-1.6.7-2.4 1.1 3-1.3-1 .4-1.3.5-4.6 1.7-9.4 3-14.3 4-.9.2-1.8.3-2.7.5 3.3-.6-1.1.1-1.5.1-2.8.3-5.6.4-8.4.4-7.8.1-15.4 6.9-15 15 .4 8.1 6.6 15.1 15 15 43.8-.3 82.4-27.9 97.6-68.8 14.6-39.3 2-86.4-30.1-113.3-19.1-16-42.5-24.9-67.5-25-7.8-.1-15.4 6.9-15 15 .5 7.6 6.7 14.3 15.1 14.4zm-576.8 147.2c-2.3 0-4.7-.1-7-.3-.9-.1-1.8-.2-2.8-.3-4.4-.4 1.8.3-.8-.1-4.4-.8-8.8-1.8-13.1-3.2-1.9-.6-3.8-1.3-5.6-2.1 2.6 1 .4.2-.1-.1-1.2-.6-2.4-1.1-3.6-1.7-3.7-1.9-7.2-4.2-10.7-6.5-.6-.4-2.9-2.2-.6-.4-.7-.5-1.4-1.1-2-1.7-1.7-1.4-3.3-2.9-4.9-4.4-1.4-1.4-2.8-2.8-4.1-4.2-.7-.8-1.4-1.6-2.1-2.5-.4-.5-2.7-3.6-.9-1.1-2.3-3.2-4.5-6.5-6.4-9.9-1-1.7-1.8-3.5-2.7-5.3-.3-.7-1.4-3.4-.3-.7-.5-1.2-1-2.5-1.4-3.7-1.3-3.8-2.4-7.7-3.2-11.7-.2-1.1-.4-2.2-.6-3.4-.5-2.6.3 3.6-.1-.8-.2-2.3-.4-4.6-.5-6.9-.1-3.7 0-7.5.3-11.2 0 .1.6-4.3.2-2.1-.4 2.2.4-2.2.4-2.1.4-2.2.9-4.4 1.5-6.6.6-2.2 1.2-4.3 2-6.4.3-.8.6-1.7.9-2.5 1.4-4-.8 1.6.3-.7 1.8-4 3.9-7.9 6.3-11.6 1.1-1.7 2.2-3.3 3.4-4.9-1.7 2.4 1.6-1.9 2.2-2.6 2.9-3.3 6-6.3 9.3-9.2.8-.7 1.7-1.4 2.5-2.1-2.5 2 .9-.6 1.2-.8 1.8-1.3 3.6-2.4 5.5-3.6 2.3-1.3 4.6-2.6 7-3.7.8-.4 1.6-.7 2.4-1.1-3 1.3 1-.4 1.3-.5 4.6-1.7 9.4-3 14.3-4 .9-.2 1.8-.3 2.7-.5-3.3.6 1.1-.1 1.5-.1 2.8-.3 5.6-.4 8.4-.4 7.8-.1 15.4-6.9 15-15-.4-8.1-6.6-15.1-15-15-43.8.3-82.4 27.9-97.6 68.8-14.6 39.3-2 86.4 30.1 113.3 19.1 16 42.5 24.9 67.5 25 7.8.1 15.4-6.9 15-15-.4-7.6-6.7-14.3-15.1-14.4z"/>
    <path d="M1504 1843.7c3.5 0 7 .2 10.4.6 2.4.3-2.3-.4.1 0 .7.1 1.3.2 2 .4 2 .4 4 .8 5.9 1.3 3.3.9 6.4 2 9.6 3.1.5.2 2.6 1.1.1 0 .6.3 1.2.5 1.8.8 1.8.9 3.6 1.7 5.3 2.7 2.7 1.5 5.3 3.1 7.8 4.9l2.1 1.5c-2.2-1.6-.4-.3.1.1 1.3 1.1 2.7 2.2 4 3.4 2.4 2.2 4.7 4.6 6.9 7 1 1.1 2 2.3 2.9 3.5-1.7-2.2 1.3 1.9 1.9 2.8 1.8 2.7 3.5 5.6 5 8.5.7 1.4 1.4 2.8 2 4.2 1 2.1-.8-2.1 0 .1.4 1 .8 2.1 1.2 3.1 1.1 3.2 2.1 6.4 2.8 9.7.4 1.5.6 3.1.9 4.7.1.6.4 2.9.1.1.2 1.1.3 2.3.4 3.4.3 3 .4 6.1.3 9.1 0 1.6-.1 3.3-.2 4.9-.1 1.1-.8 6.5-.3 3.5-1.2 6.7-2.8 13.2-5.4 19.4 1.2-2.9-.9 1.9-1.2 2.5-.7 1.4-1.4 2.7-2.2 4.1-1.7 3.1-3.7 6-5.7 8.8-1.3 1.9 1.4-1.7 0 .1l-1.2 1.5c-1.1 1.3-2.3 2.6-3.5 3.9-2.4 2.5-4.9 4.9-7.6 7.2-.7.6-1.3 1.1-2 1.7.2-.1 1.8-1.4.4-.4-1.2.9-2.5 1.8-3.8 2.6-2.9 1.9-6 3.7-9.1 5.2-.6.3-5.3 2.4-2.5 1.2-1.4.6-2.9 1.1-4.4 1.6-3.4 1.2-6.9 2.1-10.4 2.9-1.6.3-3.1.6-4.7.9 3-.5-1.9.2-2.9.3-2.3.2-4.7.3-7 .3H927.1c-2.3 0-4.7-.1-7-.3-.7-.1-6-.8-2.9-.3-1.8-.3-3.6-.6-5.4-1-3.3-.7-6.5-1.6-9.7-2.7-.8-.3-1.7-.6-2.5-.9-.4-.1-3-1.2-1.3-.5 1.5.7-.5-.2-.6-.3-1-.5-2-.9-3-1.4-2.9-1.5-5.8-3.1-8.6-4.9-1.3-.8-2.5-1.7-3.8-2.6-1.9-1.3 1.7 1.4-.1 0-.8-.7-1.7-1.4-2.5-2.1-2.5-2.1-4.8-4.4-7.1-6.8-1-1.1-2.1-2.3-3-3.4-.6-.7-1.1-1.3-1.7-2 1.3 1.7.3.3-.4-.6-1.9-2.7-3.6-5.5-5.2-8.3-.7-1.3-1.5-2.7-2.1-4.1l-.9-1.8c-1.9-3.8.9 2.7-.6-1.3-1.1-2.9-2.1-5.9-2.9-8.9-.5-1.7-.9-3.5-1.2-5.3-.2-.9-1-5.8-.6-2.8-.9-6.7-.9-13.5-.2-20.2 0-.4.5-3.3.2-1.4-.3 1.7.1-.5.1-.7.3-1.8.7-3.6 1.1-5.3.8-3.5 1.9-6.9 3.1-10.3.3-.8.6-1.7 1-2.5-.1.2-.9 2.1-.2.5.6-1.4 1.3-2.8 2-4.2 1.6-3.1 3.4-6.1 5.4-9.1.4-.6 3.4-4.7 1.5-2.3.9-1.2 1.9-2.4 2.9-3.5 2.3-2.6 4.8-5.1 7.3-7.5 1.1-1 2.3-2 3.5-3 2.2-1.8.5-.4.1-.1l2.1-1.5c2.9-2 5.9-3.8 9-5.5 1.4-.7 2.7-1.4 4.1-2.1.4-.2 2.9-1.3 1.2-.6-1.7.7.9-.3 1.3-.5 3.1-1.2 6.3-2.2 9.6-3 1.5-.4 3.1-.7 4.6-1 .9-.2 5-.8 2.1-.4 3.7-.5 7.4-.7 11.1-.7 7.8-.1 15.4-6.9 15-15-.4-8.1-6.6-15.1-15-15-31.3.2-61.6 14.4-81 39.2-19.9 25.5-27.3 58.7-19.3 90.2 7.4 29.4 28.8 55.5 56.5 68 14.8 6.7 30.3 9.8 46.6 9.8h574.1c30.2-.2 60.2-13.5 79.4-37.1 20.5-25.2 28.6-57.8 21.6-89.6-6.6-29.8-27.7-56.6-55.3-69.8-14.4-6.9-29.7-10.5-45.7-10.6-7.8-.1-15.4 6.9-15 15 .6 8.1 6.8 14.8 15.2 14.9z"/>
    <path d="M979.3 1843.7h200.5c7.8 0 15.4-6.9 15-15-.4-8.1-6.6-15-15-15H979.3c-7.8 0-15.4 6.9-15 15 .4 8.1 6.6 15 15 15zm423.4 185.8c0 1.2-.1 2.3-.2 3.5-.1 2.4.9-4.1 0-.5-.6 2.5-1.2 4.8-2.1 7.2-1.2 3.4.9-1.7 0 .1-.6 1.1-1.1 2.3-1.7 3.4-1.3 2.5-2.8 4.9-4.3 7.2-.8 1.2-1.7 2.3-2.4 3.4-1.1 1.8 2.4-2.9.3-.4l-1.2 1.5c-2.1 2.5-4.3 4.9-6.5 7.2-4.8 5-10.1 9.5-15.5 13.8 2.7-2.1-1 .7-1.7 1.3-1.7 1.2-3.3 2.4-5 3.6-3.2 2.2-6.4 4.2-9.6 6.2-7.3 4.5-14.9 8.5-22.7 12.2l-5.1 2.4c-1.1.5-2.2 1-3.3 1.4-2.2 1 1.9-.8-.4.2-4.3 1.8-8.7 3.5-13.1 5-8.9 3.2-18 5.9-27.2 8.1-71 17.5-151 6.2-211.8-35.6-1.7-1.2-3.4-2.4-5-3.6-.7-.5-1.3-1-1.9-1.4-2.8-2.1 1.7 1.4-.7-.6-3.1-2.5-6.2-5.1-9.1-7.8-2.8-2.5-5.4-5.2-8-7.9-1.1-1.2-2.3-2.5-3.4-3.8-.9-1.1-3.6-4.7-1.3-1.5-1.9-2.6-3.7-5.2-5.4-8-.8-1.4-1.6-2.7-2.3-4.1-.2-.5-.5-1-.7-1.5-1.5-2.9 0 .6.2.6-.9-.2-2.1-6.3-2.3-7.3-.1-.6-.2-1.2-.4-1.8-.6-2.5.3.8.2 1.5.2-1.2-.2-3-.3-4.2-.1-7.8-6.8-15.4-15-15-8.1.4-15.1 6.6-15 15 .3 27.4 21.3 50.9 41.5 67 29.6 23.6 64.9 39.6 101.5 48.7 43.3 10.8 88.6 11.8 132.4 3.4 37.5-7.2 75.1-21.7 106.3-44 24.2-17.3 51.9-43 52.2-75.1.1-7.8-7-15.4-15-15-8.2.5-14.9 6.7-15 15.2zm-245.8-559.2c-5.1-13.5-10.1-27-15.2-40.4-12.1-32.2-24.1-64.4-36.2-96.6-14.6-38.9-29.2-77.9-43.8-116.8-12.6-33.7-25.2-67.3-37.9-101-6.2-16.4-12.1-32.9-18.5-49.3-.1-.2-.2-.5-.3-.7-2.8-7.6-10.1-12.8-18.5-10.5-7.3 2-13.3 10.8-10.5 18.5 5.1 13.5 10.1 27 15.2 40.4 12.1 32.2 24.1 64.4 36.2 96.6 14.6 38.9 29.2 77.9 43.8 116.8 12.6 33.7 25.2 67.3 37.9 101 6.2 16.4 12.1 32.9 18.5 49.3.1.2.2.5.3.7 2.8 7.6 10.1 12.8 18.5 10.5 7.3-2 13.3-10.9 10.5-18.5zm143.6 8c5.1-13.5 10.1-27 15.2-40.4 12.1-32.2 24.1-64.4 36.2-96.6 14.6-38.9 29.2-77.9 43.8-116.8 12.6-33.7 25.2-67.3 37.9-101 6.1-16.3 13.2-32.6 18.5-49.3.1-.2.2-.5.3-.7 2.8-7.4-3.1-16.8-10.5-18.5-8.5-1.9-15.5 2.6-18.5 10.5-5.1 13.5-10.1 27-15.2 40.4-12.1 32.2-24.1 64.4-36.2 96.6-14.6 38.9-29.2 77.9-43.8 116.8-12.6 33.7-25.2 67.3-37.9 101-6.1 16.3-13.2 32.6-18.5 49.3-.1.2-.2.5-.3.7-2.8 7.4 3.1 16.8 10.5 18.5 8.6 1.9 15.6-2.6 18.5-10.5zm-254.3-393.7c21.9-.4 37.1-22.8 46.9-39.7 13-22.2 22.7-47 28.8-72 4.6-18.9 10.1-45.2-1.3-62.8-12.1-18.8-41.4-15.8-54.7.1-14.4 17.2-13.9 41.7-10.5 62.7 3.8 23.6 13.5 47.3 27.4 66.8 14.5 20.3 34.7 38.6 59.9 43.4 22.6 4.3 45.2.9 62.9-14.5 16-13.9 25.2-35.2 30.6-55.2 5.5-20.1 7.9-41.7 6.8-62.5-.8-15.5-2.9-35.2-14.7-46.7-17.6-17-38.8 1.9-46.3 18.9-15.1 34.4-1 75.5 15.7 106.7 8 14.9 18.1 31.4 31.4 42.1 16.2 13 36.6 18 57 13.9 18.7-3.8 32.7-16.3 44.3-30.8 11.6-14.4 21.7-30.1 29.3-47 13.9-30.9 23.4-70.1-.2-98.8-5.3-6.5-13-11.7-21.7-11.7-9.2.1-16.6 5.9-21.2 13.5-8.7 14.5-9.7 34-9.5 50.4.2 21.2 3.4 43.1 10.5 63.1 7.2 20.2 18.6 40.4 37.6 51.7 9.3 5.5 20 8.3 30.7 8.3 7.8.1 15.4-6.9 15-15-.4-8.2-6.6-14.9-15-15-1 0-2 0-2.9-.1-.6 0-4.7-.5-1.6-.1s-.5-.1-1.1-.3c-1.1-.2-2.2-.5-3.3-.8-.9-.3-1.7-.6-2.6-.9-.4-.1-.8-.4-1.3-.5-1.7-.5 3.2 1.6 1.7.7-1.8-1-3.6-1.8-5.3-2.9-.9-.5-1.7-1.1-2.5-1.7-2.8-1.9 1.7 1.6.3.3-1.5-1.4-3.1-2.7-4.6-4.2-1.3-1.3-2.5-2.8-3.8-4.2-2.4-2.8 1.5 2.2.1.2l-2.1-3c-2.4-3.6-4.5-7.3-6.4-11.1-.5-.9-.9-1.9-1.3-2.8-.3-.7-1.8-4.5-.8-1.8s-.4-1-.6-1.5c-.4-1.1-.9-2.2-1.3-3.4-3.2-9-5.5-18.3-7.1-27.8-.3-1.5-1.5-5-1-6.5-.4 1.2.4 3.5.2 1.6-.1-.5-.1-1.1-.2-1.6-.2-1.3-.3-2.7-.4-4-.4-4.5-.7-8.9-.8-13.4-.1-4.2-.1-8.4.1-12.7.1-2 .2-4 .4-5.9l.3-3c.1-.7.5-4.4.1-1.2s0-.2.1-.8c.1-.9.3-1.8.5-2.7.3-1.7.7-3.4 1.1-5 .3-1.3.7-2.7 1.2-4 .2-.6.5-1.2.7-1.8.9-2.9-1.9 3.7-.5 1.1.5-1 1-1.9 1.6-2.9 1.9-3.5-2.9 2.8-.2.2.3-.3.7-.6.9-.9.7-1.1-3.6 2.7-1.8 1.5 2.4-1.6-4.6 1.3-1 .5-5.6 1.2-4 .3-2.5.4 2.2.1-4.7-.8-2.5-.3.7.2 2.5 1-.4-.3-3.1-1.4-.7-.3-.1.1 2.8 2-2.9-3 0 0 1 1 1.9 2.1 2.9 3.1 1.9 2.1-2.3-3.4-.4-.5.7 1.1 1.5 2.2 2.1 3.3.7 1.3 1.3 2.6 2 3.9-1.8-3.5.4 1.5.7 2.7.4 1.4.7 2.9 1 4.4.1.7.3 1.5.4 2.3-.6-3.5-.2-1.3-.1-.5.1 3.6.3 7.2.1 10.8-.1 1.7-.3 3.3-.5 5 .4-3.4-.3 1.4-.5 2.4-.7 3.9-1.7 7.8-2.8 11.7-1.1 3.8-2.4 7.5-3.8 11.1-.3.9-.7 1.7-1 2.6-.1.3-1.3 3.1-.6 1.5.7-1.6-.5 1.1-.7 1.5l-1.8 3.9c-3.5 7.3-7.4 14.4-11.7 21.2-2.1 3.3-4.3 6.6-6.5 9.8-1 1.5-2.1 2.9-3.2 4.4-.3.4-1.7 2.3-.1.1-.8 1-1.6 2.1-2.4 3.1-4.5 5.5-9.2 11.2-14.9 15.6 1.9-1.5-1.9 1.1-2.7 1.6-1.6.9-3.2 1.8-4.8 2.6 2.4-1.1.4-.1-.2 0-1.1.4-2.1.7-3.2 1.1-1.9.6-3.9 1-5.8 1.4-2.9.6-.6 0 0 0-.9.1-1.8.1-2.7.2-2 .1-4 0-6-.1-.5 0-3.2-.3-1.3-.1 1.9.3-.8-.2-1.3-.3-2.2-.5-4.3-1-6.4-1.7-.4-.1-3-1.1-1.3-.4 1.7.7-.9-.4-1.3-.6-1.6-.8-3.2-1.7-4.8-2.6-1-.6-1.9-1.2-2.8-1.9.5.4 1.9 1.7-.2-.2-1.6-1.4-3.1-2.9-4.6-4.4-1.2-1.3-2.4-2.7-3.5-4.1-.6-.7-3.4-4.3-1.5-1.8-2.3-3.1-4.6-6.3-6.7-9.6-4.3-6.6-8.3-13.5-11.8-20.5-1.7-3.4-3.3-6.9-4.8-10.4.9 2.2 0 0-.1-.4-.3-.9-.7-1.8-1.1-2.7-.9-2.2-1.7-4.5-2.4-6.8-2.5-7.5-4.4-15.2-5.8-23-.8-4.2.1 1.9-.1-.7-.1-.9-.2-1.7-.3-2.6-.2-1.7-.3-3.5-.3-5.2-.1-3.8.2-7.5.4-11.2.1-2.2-.6 2.5 0 .4.2-.8.3-1.6.4-2.3.4-1.7.8-3.4 1.3-5.1.3-1.1 2.2-5 .5-1.8.9-1.7 1.7-3.4 2.7-5 .6-1 1.3-1.9 2-2.9 1.2-1.9-2.7 3.1-.6.8 1-1.1 2-2.2 3.1-3.2 2.5-2.6-3.4 2.1-.1.2 3.3-1.9-4.1.8-.5.3 1.5-.2-5 .4-2.5.4 2.4 0-2.3-.4-2.6-.4 3.7.8-3.5-2-1-.5 2 1.2-3-3.1-1.7-1.4.2.3.7.6.9.9.5.5 1.8 2.2-.2-.3-2.1-2.6-.4-.5 0 .2.6 1 1.1 2.1 1.6 3.1 1 1.8-1.6-4.3-.6-1.5.2.7.5 1.4.7 2.1 1 3.1 1.7 6.2 2.3 9.4.1.8.3 1.6.4 2.4.5 2.7-.1 1.2-.1-.9 0 1.9.5 4 .6 6 .3 4.1.5 8.1.5 12.2 0 4.5-.1 9-.4 13.5-.1 2.3-.3 4.5-.6 6.8-.1 1.1-.2 2.1-.3 3.2-.1.5-.1 1.1-.2 1.6-.3 2.6.5-3 .2-1.2-1.5 9.4-3.3 18.6-6 27.7-.6 2.1-1.3 4.1-2 6.2-.4 1.1-.8 2.3-1.3 3.4l-.6 1.5c-1 2.7.6-.6.5-1 .3 1.1-2.3 5-2.8 6-1 2.1-2.1 4.1-3.3 6-1 1.7-2.1 3.4-3.2 5-.6.9-1.3 1.8-1.9 2.7-1.2 1.7 2.6-3-.1.1-1.3 1.5-2.6 3-4 4.4-1.3 1.3-3.6 2.6-4.6 4.1 0-.1 3.2-2.3 1.4-1.1-.4.2-.7.5-1.1.8-.7.5-1.5 1-2.3 1.5-1.6 1-4 1.6-5.4 2.8.1-.1 3.8-1.4 1.7-.7-.4.1-.8.3-1.3.5-.9.3-1.7.6-2.6.8-.9.3-1.8.5-2.7.7-.6.1-1.1.2-1.7.3-2.5.6.9-.3 1.5-.2-1.7-.3-4.1.3-5.9.4h-6.2c-2.3 0-4.5-.3-6.7-.4-1.9-.1 3.3.6 1.4.2-.7-.1-1.4-.2-2.1-.4-1.3-.2-2.5-.5-3.8-.8-2.3-.6-4.6-1.4-6.9-2.2-.4-.1-1.3-.4-1.6-.6.1.1 3.5 1.6 1.2.5-1.3-.6-2.6-1.2-3.8-1.9-2-1.1-4-2.3-5.9-3.5-1-.6-1.9-1.3-2.9-2-3.3-2.3 2 1.8-1.1-.9-3.9-3.3-7.6-6.7-11-10.5-1.7-1.9-3.3-4-5-5.9-1.3-1.5 1.8 2.5.7.8-.3-.5-.7-1-1.1-1.5-.8-1.1-1.6-2.3-2.4-3.4-3.1-4.5-5.9-9.2-8.4-14.1-1.2-2.4-2.4-4.7-3.5-7.2-.5-1.1-1-2.3-1.5-3.4-.4-.8-1.3-2.4.4 1-.4-.8-.7-1.7-1-2.6-3.7-9.5-6.6-19.4-8.4-29.4-.2-1.1-.4-2.2-.5-3.4-.4-2.1.4 3.6 0-.2-.3-2.4-.5-4.8-.6-7.3-.2-4.4 0-8.7.3-13.1.2-3.4-.7 3.8-.1.5.2-1 .3-2 .5-3 .4-1.8.8-3.5 1.4-5.3.1-.4 1.1-2.1.9-2.6.3 1.3-1.8 3.5-.3.9.6-1.2 2.4-3.1 2.6-4.3-.3 1.4-2.6 2.9-.6 1l1.5-1.5c2.1-2.2-2.8 1.7-1 .7.8-.4 1.5-.9 2.2-1.4 2.4-1.5.1.6-1.2.4.5.1 1.6-.5 2.1-.7.8-.2 1.7-.2 2.5-.5-1.1.5-3.9.2-.8.2h2.5c.7 0 4.6.4 1.2 0-3.1-.3-.5-.1.1.2 2.1 1-4.2-2.1-1.2-.5 2.5 1.4-1.8-1.5-1.3-1.1.4.4.9.8 1.2 1.2-3.3-4-1.1-.8.1.9-.5-.7-1.3-3.9-.5-.9l.6 2.1c.2.8.3 1.5.5 2.3.7 3.4-.2-3.9-.1-.3.2 4.1.3 8.1 0 12.1-.1 2.1-.7 4.4-.6 6.4-.2-4.3.2-1.4-.1.2-.2 1.4-.5 2.9-.7 4.3-1 5.3-2.2 10.6-3.6 15.9-3 11.1-6.7 22-11.1 32.7-.3.6-.5 1.2-.8 1.9.1-.3 1.4-3.2.3-.8-.5 1.2-1.1 2.5-1.6 3.7-1.2 2.7-2.5 5.4-3.8 8.1-2.4 4.8-4.9 9.6-7.6 14.2-2.5 4.2-5.1 8.4-8 12.4-.4.5-.8 1.1-1.2 1.6-1 1.5 2.1-2.5.9-1.2-.7.7-1.3 1.6-1.9 2.4-1.4 1.6-2.8 3.2-4.3 4.7-.5.5-4.1 3.3-4.1 3.7-.1-.7 3.5-2.3.7-.6-.6.4-1.2.8-1.9 1.2-.6.3-1.3.6-1.9 1-1.3.8 4-1.1 1.3-.6-.6.1-1.5.3-2.1.5.1 0 4.7-.4 1.5-.3-7.8.1-15.4 6.8-15 15 .7 8.2 6.9 15.3 15.3 15.1z"/>
  </g>
</svg>